<svg width="48" height="48" viewBox="0 0 48 48" fill="none" xmlns="http://www.w3.org/2000/svg">
<rect width="48" height="48" rx="8" fill="#F1F1F1"/>
<path d="M17.0925 33.868C16.7112 33.868 16.363 33.6512 16.1949 33.3089L8.7852 18.2235C8.6815 18.0124 8.37033 18.095 8.38632 18.3297V18.3297C8.43113 18.8138 8.47595 19.3939 8.52076 20.0698C8.57678 20.7367 8.62159 21.4446 8.6552 22.1937C8.68881 22.9428 8.70562 23.6827 8.70562 24.4135V32.8681C8.70562 33.4203 8.2579 33.868 7.70562 33.868H7C6.44772 33.868 6 33.4203 6 32.868V16C6 15.4477 6.44772 15 7 15H9.32962C9.70919 15 10.056 15.2149 10.225 15.5548L17.5852 30.3571C17.7342 30.6567 18.1483 30.5427 18.1165 30.2095V30.2095C18.0492 29.497 17.9876 28.6383 17.9316 27.6335C17.8756 26.6287 17.8476 25.5645 17.8476 24.4409V16C17.8476 15.4477 18.2953 15 18.8476 15H19.5532C20.1055 15 20.5532 15.4477 20.5532 16V32.868C20.5532 33.4203 20.1055 33.868 19.5532 33.868H17.0925Z" fill="#062B04"/>
<path d="M29.2201 33.868C28.8388 33.868 28.4907 33.6512 28.3226 33.3089L20.9129 18.2235C20.8092 18.0124 20.498 18.095 20.514 18.3297V18.3297C20.5588 18.8138 20.6036 19.3939 20.6484 20.0698C20.7044 20.7367 20.7492 21.4446 20.7829 22.1937C20.8165 22.9428 20.8333 23.6827 20.8333 24.4135V32.8681C20.8333 33.4203 20.3856 33.868 19.8333 33.868H19.1277C18.5754 33.868 18.1277 33.4203 18.1277 32.868V16C18.1277 15.4477 18.5754 15 19.1277 15H21.4573C21.8368 15 22.1837 15.2149 22.3527 15.5548L29.7129 30.3571C29.8619 30.6567 30.2759 30.5427 30.2441 30.2095V30.2095C30.1769 29.497 30.1153 28.6383 30.0593 27.6335C30.0032 26.6287 29.9752 25.5645 29.9752 24.4409V16C29.9752 15.4477 30.4229 15 30.9752 15H31.6808C32.2331 15 32.6808 15.4477 32.6808 16V32.868C32.6808 33.4203 32.2331 33.868 31.6808 33.868H29.2201Z" fill="#062B04"/>
<path d="M41.3478 33.868C40.9665 33.868 40.6183 33.6512 40.4502 33.3089L33.0405 18.2235C32.9368 18.0124 32.6256 18.095 32.6416 18.3297V18.3297C32.6864 18.8138 32.7313 19.3939 32.7761 20.0698C32.8321 20.7367 32.8769 21.4446 32.9105 22.1937C32.9441 22.9428 32.9609 23.6827 32.9609 24.4135V32.8681C32.9609 33.4203 32.5132 33.868 31.9609 33.868H31.2553C30.703 33.868 30.2553 33.4203 30.2553 32.868V16C30.2553 15.4477 30.703 15 31.2553 15H33.5849C33.9645 15 34.3114 15.2149 34.4804 15.5548L42.4894 31.662L42.8511 32.4516C43.1545 33.1139 42.6705 33.868 41.942 33.868H41.3478Z" fill="#062B04"/>
</svg>
